<svg width="47" height="47" viewBox="0 0 47 47" fill="none" xmlns="http://www.w3.org/2000/svg">
<path fill-rule="evenodd" clip-rule="evenodd" d="M7.40625 0.90625C3.8164 0.90625 0.90625 3.8164 0.90625 7.40625V39.5938C0.90625 43.1836 3.8164 46.0938 7.40625 46.0938H39.5938C43.1836 46.0938 46.0938 43.1836 46.0938 39.5938V7.40625C46.0938 3.8164 43.1836 0.90625 39.5938 0.90625H7.40625ZM3.90625 7.40625C3.90625 5.47325 5.47325 3.90625 7.40625 3.90625H39.5938C41.5267 3.90625 43.0938 5.47325 43.0938 7.40625V39.5938C43.0938 41.5267 41.5267 43.0938 39.5938 43.0938H7.40625C5.47325 43.0938 3.90625 41.5267 3.90625 39.5938V7.40625ZM13.7188 19.2812C13.1665 19.2812 12.7188 19.729 12.7188 20.2812V38.9062C12.7188 39.4585 13.1665 39.9062 13.7188 39.9062H16.4062C16.9585 39.9062 17.4062 39.4585 17.4062 38.9062V20.2812C17.4062 19.729 16.9585 19.2812 16.4062 19.2812H13.7188ZM21.1562 8.09375C21.1562 7.54147 21.604 7.09375 22.1562 7.09375H24.8438C25.396 7.09375 25.8438 7.54147 25.8438 8.09375V38.9062C25.8438 39.4585 25.396 39.9062 24.8438 39.9062H22.1562C21.604 39.9062 21.1562 39.4585 21.1562 38.9062V8.09375ZM30.5938 25.8438C30.0415 25.8438 29.5938 26.2915 29.5938 26.8438V38.9062C29.5938 39.4585 30.0415 39.9062 30.5938 39.9062H33.2812C33.8335 39.9062 34.2812 39.4585 34.2812 38.9062V26.8438C34.2812 26.2915 33.8335 25.8438 33.2812 25.8438H30.5938Z" fill="#456D87"/>
</svg>
