<svg width="25" height="25" viewBox="0 0 25 25" fill="none" xmlns="http://www.w3.org/2000/svg">
<rect x="2" y="3" width="21" height="22" rx="0.5" fill="#AC0202"/>
<path fill-rule="evenodd" clip-rule="evenodd" d="M23 0.5C23 0.223858 22.7761 0 22.5 0H2.5C2.22386 0 2 0.223858 2 0.5V0.5C2 0.776142 1.77614 1 1.5 1H0.5C0.223858 1 0 1.22386 0 1.5V1.5C0 1.77614 0.223858 2 0.5 2H2H23H24.5C24.7761 2 25 1.77614 25 1.5V1.5C25 1.22386 24.7761 1 24.5 1H23.5C23.2239 1 23 0.776142 23 0.5V0.5Z" fill="#AC0202"/>
</svg>
