<svg width="34" height="34" viewBox="0 0 34 34" fill="none" xmlns="http://www.w3.org/2000/svg">
<path fill-rule="evenodd" clip-rule="evenodd" d="M24.9238 23.7084C28.7065 19.2002 28.1185 12.4792 23.6104 8.69645C20.148 5.79111 15.3801 5.46408 11.6407 7.51118C11.3793 7.65426 11.0552 7.63193 10.8269 7.44039V7.44039C10.4719 7.1425 10.5036 6.58673 10.9084 6.36115C15.1369 4.00493 20.556 4.35781 24.4848 7.65441C29.5684 11.9201 30.2315 19.4991 25.9658 24.5827C21.7002 29.6663 14.1211 30.3294 9.0375 26.0638C5.10877 22.7672 3.82021 17.4916 5.40638 12.9182C5.55824 12.4804 6.10007 12.3527 6.45507 12.6506V12.6506C6.68334 12.8421 6.76162 13.1574 6.66609 13.4397C5.29944 17.4778 6.44943 22.1164 9.91187 25.0217C14.42 28.8045 21.141 28.2165 24.9238 23.7084Z" fill="#66C49D" stroke="#66C49D"/>
<path fill-rule="evenodd" clip-rule="evenodd" d="M5.51086 5.63018C5.3909 5.51713 5.2022 5.52204 5.08828 5.64118L3.74755 7.04333C3.63305 7.16308 3.6373 7.35298 3.75705 7.46748L13.1068 16.4076L14.7762 14.3618L5.51086 5.63018ZM14.9232 16.7408C15.1371 16.78 15.3204 16.5856 15.2687 16.3744L14.7762 14.3618L13.1068 16.4076L14.9232 16.7408Z" fill="#66C49D"/>
</svg>
