<svg width="45" height="47" viewBox="0 0 45 47" fill="none" xmlns="http://www.w3.org/2000/svg">
<path d="M1.6028 19.0948V19.0699L1.60198 19.045L1.58527 18.5422C1.54749 17.4045 2.06526 16.3196 2.97343 15.6334L20.3832 2.4794C21.6339 1.53439 23.3605 1.5363 24.6092 2.48407L42.0131 15.6942C42.8849 16.3559 43.397 17.3875 43.397 18.482V19.0948V19.2531C43.397 19.2768 43.3975 19.3004 43.3986 19.3239C43.3975 19.3475 43.397 19.3712 43.397 19.395V41.25C43.397 43.183 41.83 44.75 39.897 44.75H5.1028C3.16981 44.75 1.6028 43.183 1.6028 41.25V19.395C1.6028 19.3712 1.60226 19.3475 1.60118 19.3239C1.60226 19.3004 1.6028 19.2768 1.6028 19.2531V19.0948ZM44.8591 17.8678C44.6841 17.8753 44.5167 17.9122 44.3617 17.9738C44.5126 17.9125 44.6792 17.8752 44.8591 17.8678C44.8591 17.8678 44.8591 17.8678 44.8591 17.8678ZM0.11464 17.8669C0.114639 17.8669 0.114638 17.8669 0.114637 17.8669C0.298785 17.8717 0.474826 17.909 0.637216 17.9734C0.479329 17.9094 0.304243 17.8716 0.11464 17.8669Z" stroke="#456D87" stroke-width="3"/>
</svg>
