<svg width="33" height="26" viewBox="0 0 33 26" fill="none" xmlns="http://www.w3.org/2000/svg">
<path fill-rule="evenodd" clip-rule="evenodd" d="M2.36029 13.0158C2.36029 7.13094 7.13094 2.36028 13.0159 2.36028C17.5358 2.36028 21.3984 5.17448 22.947 9.14628C23.0553 9.4239 23.3179 9.61514 23.6159 9.61514V9.61514C24.0794 9.61514 24.4123 9.16904 24.2472 8.73602C22.5226 4.21306 18.1444 1 13.0159 1C6.37968 1 1 6.37968 1 13.0158C1 19.652 6.37968 25.0317 13.0159 25.0317C18.1444 25.0317 22.5226 21.8186 24.2472 17.2957C24.4123 16.8627 24.0794 16.4166 23.6159 16.4166V16.4166C23.3179 16.4166 23.0553 16.6078 22.947 16.8854C21.3984 20.8572 17.5358 23.6714 13.0159 23.6714C7.13094 23.6714 2.36029 18.9008 2.36029 13.0158Z" fill="#456D87" stroke="#456D87"/>
<path d="M13.032 12.5927C12.7437 12.5927 12.51 12.8562 12.51 13.1812C12.51 13.5062 12.7437 13.7697 13.032 13.7698L13.032 12.5927ZM31.567 13.5983C31.7708 13.3685 31.7709 12.9958 31.567 12.766L28.2451 9.02042C28.0413 8.79057 27.7107 8.79056 27.5069 9.02038C27.303 9.25021 27.303 9.62285 27.5069 9.85269L30.4597 13.1821L27.5066 16.5112C27.3027 16.741 27.3027 17.1136 27.5066 17.3435C27.7104 17.5733 28.0409 17.5734 28.2448 17.3435L31.567 13.5983ZM13.032 13.7698L30.9891 13.5983V12.5927H13.032L13.032 13.7698Z" fill="#456D87"/>
<path d="M13.032 12.5927C12.7437 12.5927 12.51 12.8562 12.51 13.1812C12.51 13.5062 12.7437 13.7697 13.032 13.7698M13.032 12.5927L13.032 13.7698M13.032 12.5927H30.9891V13.5983L13.032 13.7698M31.567 13.5983C31.7708 13.3685 31.7709 12.9958 31.567 12.766L28.2451 9.02042C28.0413 8.79057 27.7107 8.79056 27.5069 9.02038C27.303 9.25021 27.303 9.62285 27.5069 9.85269L30.4597 13.1821L27.5066 16.5112C27.3027 16.741 27.3027 17.1136 27.5066 17.3435C27.7104 17.5733 28.0409 17.5734 28.2448 17.3435L31.567 13.5983Z" stroke="#456D87"/>
</svg>
