<svg width="60" height="67" viewBox="0 0 60 67" fill="none" xmlns="http://www.w3.org/2000/svg">
<path d="M60 15.9142C60 15.866 59.996 15.8191 59.9901 15.7727C59.9886 15.7607 59.9867 15.749 59.9847 15.7372C59.9786 15.6989 59.9708 15.6615 59.9611 15.6248C59.9589 15.6163 59.9569 15.6075 59.9544 15.5989C59.9413 15.5535 59.9253 15.5091 59.9068 15.4661C59.9048 15.4616 59.9025 15.4573 59.9005 15.453C59.8834 15.415 59.8643 15.3786 59.8432 15.3431C59.8375 15.3334 59.8319 15.324 59.8259 15.3146C59.803 15.2785 59.7788 15.2436 59.752 15.2105C59.7498 15.2077 59.7479 15.2047 59.7457 15.202C59.717 15.1669 59.6856 15.1341 59.6528 15.1027C59.6441 15.0943 59.6349 15.0863 59.6258 15.0783C59.5976 15.0529 59.5682 15.029 59.5375 15.0066C59.5304 15.0014 59.5234 14.9956 59.5161 14.9905C59.4775 14.9636 59.4372 14.9394 59.3951 14.9176C59.3929 14.9164 59.391 14.9147 59.3885 14.9135L30.5126 0.123644C30.1908 -0.0412147 29.8094 -0.0412147 29.4875 0.123644L0.612053 14.9134C0.609704 14.9146 0.607746 14.9163 0.605266 14.9174C0.563496 14.9394 0.523162 14.9635 0.484526 14.9903C0.477086 14.9955 0.470037 15.0012 0.462597 15.0066C0.432053 15.0289 0.402945 15.0527 0.37475 15.0779C0.365613 15.0861 0.356476 15.094 0.3476 15.1025C0.314968 15.1339 0.283641 15.1668 0.254794 15.2017C0.252444 15.2046 0.250486 15.2076 0.248137 15.2105C0.221639 15.2436 0.197361 15.2785 0.174387 15.3145C0.168383 15.3239 0.16264 15.3334 0.157027 15.343C0.136012 15.3785 0.116693 15.4149 0.0997246 15.4529C0.0977666 15.4572 0.0954171 15.4614 0.0934592 15.4659C0.0746629 15.5087 0.0591299 15.5531 0.0458159 15.5988C0.0432053 15.6073 0.0415085 15.616 0.039159 15.6246C0.0293693 15.6613 0.021407 15.6988 0.0152721 15.737C0.0134447 15.7489 0.0113561 15.7605 0.00992027 15.7725C0.00404644 15.819 0 15.8661 0 15.914V50.9167C0 50.92 0.000391623 50.9231 0.000391623 50.9265C0.000522152 50.9506 0.00234955 50.9747 0.00404643 50.9988C0.00509067 51.0129 0.00548228 51.027 0.00717917 51.041C0.00926764 51.0603 0.0129226 51.0793 0.0160553 51.0985C0.0190574 51.1167 0.0214068 51.1348 0.0253227 51.1527C0.0281944 51.1659 0.0321103 51.1787 0.0353735 51.1917C0.0412473 51.2146 0.0465992 51.2374 0.0537783 51.2597C0.0565194 51.2681 0.0599132 51.2762 0.0627849 51.2844C0.0717914 51.3104 0.0809285 51.3361 0.0917624 51.3612C0.0955478 51.3699 0.100116 51.3781 0.104032 51.3866C0.114997 51.4105 0.125961 51.4343 0.138492 51.4571C0.146976 51.4726 0.156897 51.4874 0.166034 51.5025C0.175171 51.5177 0.183916 51.5331 0.193967 51.5478C0.208717 51.5696 0.225033 51.5902 0.241349 51.6111C0.247092 51.6184 0.252183 51.6261 0.258187 51.6333C0.275678 51.6545 0.294736 51.6746 0.313924 51.6945C0.319797 51.7007 0.32528 51.7073 0.331284 51.7133C0.347861 51.7299 0.365874 51.7454 0.383757 51.761C0.393808 51.7698 0.403206 51.779 0.413648 51.7875C0.427745 51.799 0.442887 51.8095 0.457506 51.8204C0.473039 51.8319 0.488703 51.8437 0.504888 51.8546C0.516375 51.8623 0.528514 51.8689 0.540392 51.8761C0.561016 51.8886 0.581901 51.9013 0.603438 51.9125C0.60631 51.9141 0.60892 51.9158 0.611792 51.9173L10.1881 56.8221C10.221 56.8411 10.2547 56.8584 10.2894 56.8739L19.7207 61.7046C19.8109 61.7693 19.9107 61.821 20.0181 61.8569L29.4874 66.707C29.4937 66.7101 29.5003 66.7122 29.5066 66.7154C29.5229 66.7234 29.5391 66.7318 29.5559 66.7392C29.5563 66.7394 29.5569 66.7396 29.5571 66.7399C29.5695 66.7452 29.5826 66.7497 29.5954 66.7544C29.6075 66.7591 29.6196 66.7635 29.6318 66.7677C29.651 66.7744 29.6702 66.7807 29.6897 66.7862C29.6986 66.7888 29.7072 66.7909 29.7161 66.7931C29.7292 66.7965 29.7422 66.8002 29.7553 66.8031C29.7785 66.8083 29.8021 66.8121 29.826 66.8159C29.8362 66.8174 29.8462 66.8198 29.8564 66.8211C29.8637 66.822 29.8712 66.823 29.8785 66.824C29.9067 66.8271 29.9357 66.828 29.9645 66.8289C29.976 66.8292 29.9876 66.8309 29.999 66.8309C29.9992 66.8309 29.9996 66.8309 29.9999 66.8309C30.0001 66.8309 30.0005 66.8309 30.0008 66.8309C30.0121 66.8309 30.0238 66.8292 30.0352 66.8289C30.0642 66.828 30.0929 66.827 30.1213 66.824C30.1286 66.8232 30.136 66.8221 30.1433 66.8211C30.1535 66.8198 30.1636 66.8174 30.1737 66.8159C30.1976 66.8121 30.2212 66.8084 30.2446 66.8031C30.2578 66.8001 30.2707 66.7967 30.2839 66.7931C30.2926 66.7909 30.3013 66.7888 30.31 66.7862C30.3296 66.7805 30.349 66.7742 30.3682 66.7677C30.3804 66.7635 30.3925 66.7589 30.4046 66.7544C30.4174 66.7494 30.4305 66.7451 30.443 66.7396C30.4432 66.7396 30.4433 66.7395 30.4434 66.7395C30.4605 66.7322 30.4768 66.7236 30.4933 66.7154C30.4995 66.7122 30.5062 66.7103 30.5125 66.707L39.9819 61.8569C40.0892 61.8209 40.189 61.7693 40.2791 61.7046L49.7107 56.8737C49.7453 56.8582 49.779 56.8409 49.8116 56.8221L59.3879 51.9172C59.391 51.9157 59.3934 51.914 59.3963 51.9124C59.4181 51.901 59.4387 51.8885 59.4593 51.876C59.4712 51.8688 59.4835 51.8619 59.4949 51.8544C59.511 51.8436 59.5264 51.8318 59.5421 51.8202C59.557 51.8093 59.572 51.7988 59.5861 51.7873C59.5964 51.779 59.6061 51.7696 59.616 51.7608C59.6339 51.7453 59.6518 51.7296 59.6685 51.7132C59.6746 51.7072 59.6799 51.7007 59.6858 51.6944C59.7049 51.6744 59.7239 51.6543 59.7414 51.6332C59.7474 51.626 59.7525 51.6183 59.7583 51.611C59.7746 51.5901 59.7908 51.5695 59.8055 51.5477C59.8154 51.5329 59.8241 51.5175 59.8335 51.5024C59.8427 51.4873 59.8525 51.4725 59.861 51.457C59.8734 51.434 59.8845 51.4102 59.8954 51.3865C59.8994 51.378 59.9039 51.3695 59.9077 51.361C59.9186 51.336 59.9277 51.3101 59.9364 51.2843C59.9394 51.2761 59.9427 51.268 59.9456 51.2596C59.9526 51.2374 59.9581 51.2144 59.964 51.1916C59.9672 51.1785 59.9712 51.1656 59.974 51.1526C59.9778 51.1347 59.9803 51.1164 59.9833 51.0984C59.9864 51.0792 59.99 51.0602 59.9922 51.0408C59.9936 51.0269 59.9943 51.0128 59.9953 50.9987C59.9971 50.9747 59.9986 50.9505 59.999 50.9264C59.999 50.9231 59.9994 50.92 59.9994 50.9166V15.9142H60ZM20.3736 7.31818L27.5339 10.9857L20.3617 14.6591L13.2014 10.9917L20.3736 7.31818ZM30 12.2488L37.1722 15.9223L30 19.5957L22.8278 15.9223L30 12.2488ZM46.7988 10.9917L39.6384 14.6591L32.4662 10.9855L39.6266 7.31805L46.7988 10.9917ZM2.24889 29.9195L9.62447 33.6971V41.9143L2.24889 38.1367V29.9195ZM11.873 34.8488L19.2505 38.6275V46.8447L11.873 43.066V34.8488ZM28.8758 41.0312L21.4991 37.2529V27.6129L28.8758 31.3912V41.0312ZM31.1244 31.3913L38.501 27.613V37.253L31.1244 41.0313V31.3913ZM40.7496 26.4613L48.1272 22.6826V32.3226L40.7496 36.1013V26.4613ZM30 29.4408L22.8557 25.7815L30 22.1223L37.1443 25.7815L30 29.4408ZM19.2506 36.1013L11.8731 32.3226V22.6826L19.2506 26.4613V36.1013ZM21.4993 39.7794L28.8759 43.5577V51.7747L21.4993 47.9964V39.7794ZM31.1244 43.5577L38.501 39.7794V47.9964L31.1244 51.7747V43.5577ZM40.7496 38.6277L48.1272 34.849V43.0663L40.7496 46.845V38.6277ZM50.3758 33.6972L57.7514 29.9196V38.1368L50.3758 41.9145V33.6972ZM57.7514 27.3931L50.3758 31.1707V21.5307L57.7514 17.7531V27.3931ZM39.6106 24.5183L32.4664 20.859L39.6386 17.1854L46.7828 20.8447L39.6106 24.5183ZM27.5339 20.859L20.3896 24.5183L13.2174 20.8447L20.3617 17.1854L27.5339 20.859ZM9.62434 31.1708L2.24876 27.3932V17.7533L9.62434 21.531V31.1708ZM2.24889 40.663L9.62447 44.4406V54.0071L2.24889 50.2295V40.663ZM11.873 45.5924L19.2505 49.3711V58.9376L11.873 55.1589V45.5924ZM21.4993 50.5229L28.8759 54.3012V63.8677L21.4993 60.0894V50.5229ZM31.1244 54.3011L38.501 50.5228V60.0893L31.1244 63.8676V54.3011ZM40.7496 49.3711L48.1272 45.5924V55.1589L40.7496 58.9376V49.3711ZM50.3758 44.4406L57.7514 40.663V50.2293L50.3758 54.007V44.4406ZM49.2491 19.5817L42.1048 15.9224L49.265 12.2549L56.4093 15.9142L49.2491 19.5817ZM30 2.38756L37.1603 6.05504L30 9.72253L22.8398 6.05504L30 2.38756ZM10.7351 12.2549L17.8955 15.9224L10.7512 19.5817L3.59087 15.9142L10.7351 12.2549Z" fill="white"/>
</svg>
