<svg width="33" height="26" viewBox="0 0 33 26" fill="none" xmlns="http://www.w3.org/2000/svg">
<path fill-rule="evenodd" clip-rule="evenodd" d="M30.3597 13.0158C30.3597 7.13094 25.589 2.36028 19.7041 2.36028C15.1842 2.36028 11.3216 5.17448 9.77292 9.14628C9.66467 9.4239 9.40202 9.61514 9.10404 9.61514C8.64061 9.61514 8.30762 9.16904 8.47273 8.73602C10.1974 4.21306 14.5755 1 19.7041 1C26.3403 1 31.72 6.37968 31.72 13.0158C31.72 19.652 26.3403 25.0317 19.7041 25.0317C14.5755 25.0317 10.1974 21.8186 8.47273 17.2957C8.30762 16.8627 8.64061 16.4166 9.10404 16.4166C9.40202 16.4166 9.66467 16.6078 9.77292 16.8854C11.3216 20.8572 15.1842 23.6714 19.7041 23.6714C25.589 23.6714 30.3597 18.9008 30.3597 13.0158Z" fill="#C34C4C" stroke="#C34C4C"/>
<path d="M19.6879 12.5927C19.9762 12.5927 20.2099 12.8562 20.21 13.1812C20.21 13.5062 19.9763 13.7697 19.688 13.7698L19.6879 12.5927ZM1.15298 13.5983C0.949129 13.3685 0.949108 12.9958 1.15296 12.766L4.47485 9.02042C4.67869 8.79057 5.00922 8.79056 5.21308 9.02038C5.41695 9.25021 5.41695 9.62285 5.21312 9.85269L2.26031 13.1821L5.21337 16.5112C5.41722 16.741 5.41724 17.1136 5.21339 17.3435C5.00955 17.5733 4.67904 17.5734 4.47517 17.3435L1.15298 13.5983ZM19.688 13.7698L1.73089 13.5983V12.5927H19.6879L19.688 13.7698Z" fill="#C34C4C"/>
<path d="M19.6879 12.5927C19.9762 12.5927 20.2099 12.8562 20.21 13.1812C20.21 13.5062 19.9763 13.7697 19.688 13.7698M19.6879 12.5927L19.688 13.7698M19.6879 12.5927H1.73089V13.5983L19.688 13.7698M1.15298 13.5983C0.949129 13.3685 0.949108 12.9958 1.15296 12.766L4.47485 9.02042C4.67869 8.79057 5.00922 8.79056 5.21308 9.02038C5.41695 9.25021 5.41695 9.62285 5.21312 9.85269L2.26031 13.1821L5.21337 16.5112C5.41722 16.741 5.41724 17.1136 5.21339 17.3435C5.00956 17.5733 4.67904 17.5734 4.47517 17.3435L1.15298 13.5983Z" stroke="#C34C4C"/>
</svg>
